<svg width="73" height="67" viewBox="0 0 73 67" fill="none" xmlns="http://www.w3.org/2000/svg">
<g filter="url(#filter0_d_309_29)">
<path fill-rule="evenodd" clip-rule="evenodd" d="M63.5341 4C66.5528 4 69 6.44341 69 9.4575V18.3075C69 25.8977 63.0805 32.1074 55.5996 32.5854C52.9407 38.9579 47.1761 43.7149 40.1931 44.9717V55.625H49.7954C51.8351 55.625 53.4886 57.2759 53.4886 59.3125C53.4886 61.349 51.8351 63 49.7954 63H23.2045C21.1648 63 19.5113 61.349 19.5113 59.3125C19.5113 57.2759 21.1648 55.625 23.2045 55.625H32.8068V44.9717C25.8238 43.7149 20.0592 38.9579 17.4004 32.5854C9.91942 32.1074 4 25.8976 4 18.3075V9.4575C4 6.44341 6.44717 4 9.4659 4H63.5341ZM57.1543 25.7234C60.2609 24.6866 62.5 21.7581 62.5 18.3075V10.49H57.1818V24.65C57.1818 25.01 57.1725 25.3679 57.1543 25.7234ZM15.8182 24.65C15.8182 25.01 15.8274 25.3679 15.8456 25.7234C12.739 24.6865 10.5 21.7581 10.5 18.3075V10.49H15.8182V24.65Z" fill="#FFCD29"/>
<path d="M10 18.3076C10 21.9801 12.3834 25.0945 15.6875 26.1973L16.3828 26.4297L16.3447 25.6982C16.3269 25.3514 16.3184 25.0017 16.3184 24.6504V9.99023H10V18.3076ZM56.6816 24.6504C56.6816 25.0018 56.6731 25.3514 56.6553 25.6982L56.6172 26.4297L57.3125 26.1973C60.6166 25.0945 63 21.9801 63 18.3076V9.99023H56.6816V24.6504ZM33.3066 44.5537L32.8955 44.4795C26.0825 43.2533 20.4559 38.6111 17.8613 32.3926L17.7422 32.1064L17.4326 32.0869L17.0947 32.0605C10.035 31.4371 4.50006 25.5171 4.5 18.3076V9.45703C4.50025 6.72005 6.7227 4.50004 9.46582 4.5H63.5342C66.2773 4.50004 68.4997 6.72005 68.5 9.45703V18.3076C68.4999 25.6316 62.7874 31.6256 55.5674 32.0869L55.2578 32.1064L55.1377 32.3926C52.5431 38.6111 46.9175 43.2533 40.1045 44.4795L39.6934 44.5537V56.125H49.7949C51.5592 56.125 52.9883 57.5528 52.9883 59.3125C52.9883 61.0722 51.5592 62.5 49.7949 62.5H23.2041C21.44 62.4998 20.0117 61.072 20.0117 59.3125C20.0117 57.553 21.44 56.1252 23.2041 56.125H33.3066V44.5537Z" stroke="#7B7B7B"/>
</g>
<defs>
<filter id="filter0_d_309_29" x="0" y="0" width="73" height="67" filterUnits="userSpaceOnUse" color-interpolation-filters="sRGB">
<feFlood flood-opacity="0" result="BackgroundImageFix"/>
<feColorMatrix in="SourceAlpha" type="matrix" values="0 0 0 0 0 0 0 0 0 0 0 0 0 0 0 0 0 0 127 0" result="hardAlpha"/>
<feOffset/>
<feGaussianBlur stdDeviation="2"/>
<feComposite in2="hardAlpha" operator="out"/>
<feColorMatrix type="matrix" values="0 0 0 0 0 0 0 0 0 0 0 0 0 0 0 0 0 0 0.25 0"/>
<feBlend mode="normal" in2="BackgroundImageFix" result="effect1_dropShadow_309_29"/>
<feBlend mode="normal" in="SourceGraphic" in2="effect1_dropShadow_309_29" result="shape"/>
</filter>
</defs>
</svg>
