<svg width="75" height="75" viewBox="0 0 75 75" fill="none" xmlns="http://www.w3.org/2000/svg">
<mask id="mask0_419_20" style="mask-type:luminance" maskUnits="userSpaceOnUse" x="0" y="0" width="75" height="75">
<path d="M74.25 0H0V74.25H74.25V0Z" fill="white"/>
</mask>
<g mask="url(#mask0_419_20)">
<path d="M28.1611 4.18888C28.174 0.681358 32.7789 -0.870093 34.9073 1.92614C38.666 6.86422 41.9014 11.5473 43.5856 16.7853C44.9605 21.0614 45.2494 25.5171 44.2919 30.5898C47.6063 29.8085 48.986 24.9529 49.4122 22.0982C49.8511 19.1604 53.5154 17.8969 55.6801 19.9034C61.1068 24.9336 65.6433 34.5099 65.6433 44.1936C65.6433 59.8068 52.5677 72.3215 37.1125 72.3215C21.5779 72.3214 8.98462 59.7282 8.98462 44.1936C8.98462 34.4358 14.8503 28.1707 19.4445 22.8193C24.1987 17.2814 28.1314 12.2697 28.1611 4.18888ZM34.3486 31.7167C34.3486 41.3049 24.2123 43.5998 24.212 51.7649C24.212 58.5045 29.9878 63.9685 37.1125 63.9687C44.2372 63.9687 50.0129 58.5045 50.0129 51.7649C50.0128 47.4066 47.6862 43.506 45.4063 41.305C45.4063 41.305 44.1013 48.5006 38.894 47.5442C40.7369 41.4425 38.0521 36.5952 34.3486 31.7167Z" fill="#FF5800"/>
</g>
</svg>
