<svg width="40" height="38" viewBox="0 0 40 38" fill="none" xmlns="http://www.w3.org/2000/svg">
<path d="M35.5519 0.463665C36.1377 1.08189 36.1377 2.08422 35.5519 2.70244L33.5521 4.81318C32.9663 5.4314 32.0166 5.4314 31.4309 4.81318C30.8451 4.19496 30.8451 3.19262 31.4309 2.5744L33.4307 0.463665C34.0165 -0.154555 34.9662 -0.154555 35.5519 0.463665Z" fill="#26AD50"/>
<path d="M28.7832 22.7163C27.5663 24.0925 26.6059 25.7906 26.6059 27.673C26.6059 27.6847 26.5969 27.6941 26.5859 27.6941H21.5011V14.4091C21.5011 13.5348 20.8296 12.826 20.0012 12.826C19.1728 12.826 18.5013 13.5348 18.5013 14.4091V27.6941H13.4166C13.4055 27.6941 13.3966 27.6847 13.3966 27.673C13.3966 25.7831 12.4334 24.0778 11.2149 22.6928C9.22651 20.4328 8.01063 17.4051 8.01063 14.0777C8.01063 7.0837 13.3827 1.4139 20.0094 1.4139C26.6361 1.4139 32.0082 7.0837 32.0082 14.0777C32.0082 17.4167 30.7838 20.4538 28.7832 22.7163Z" fill="#26AD50"/>
<path d="M25.6592 32.8368L14.363 32.8368C13.5346 32.8368 12.8631 32.128 12.8631 31.2537C12.8631 30.3794 13.5346 29.6707 14.363 29.6707H25.6592C26.4875 29.6707 27.1591 30.3794 27.1591 31.2537C27.1591 32.128 26.4875 32.8368 25.6592 32.8368Z" fill="#26AD50"/>
<path d="M17.1343 34.8339C16.3059 34.8339 15.6343 35.5426 15.6343 36.4169C15.6343 37.2912 16.3059 38 17.1343 38H22.8682C23.6965 38 24.3681 37.2912 24.3681 36.4169C24.3681 35.5426 23.6965 34.8339 22.8682 34.8339H17.1343Z" fill="#26AD50"/>
<path d="M34.0024 13.7265C34.0024 12.8522 34.674 12.1434 35.5023 12.1434H38.5001C39.3285 12.1434 40 12.8522 40 13.7265C40 14.6008 39.3285 15.3095 38.5001 15.3095L35.5023 15.3095C34.674 15.3095 34.0024 14.6008 34.0024 13.7265Z" fill="#26AD50"/>
<path d="M1.49991 12.1434C0.671534 12.1434 9.93353e-08 12.8522 0 13.7265C-9.93353e-08 14.6008 0.671534 15.3095 1.49991 15.3095H4.49632C5.3247 15.3095 5.99624 14.6008 5.99624 13.7265C5.99624 12.8522 5.3247 12.1434 4.49632 12.1434H1.49991Z" fill="#26AD50"/>
<path d="M6.55875 0.466242C5.973 -0.151979 5.02331 -0.151979 4.43756 0.466242C3.8518 1.08446 3.8518 2.0868 4.43756 2.70502L6.43503 4.81321C7.02078 5.43143 7.97047 5.43143 8.55622 4.81321C9.14198 4.19499 9.14198 3.19265 8.55622 2.57443L6.55875 0.466242Z" fill="#26AD50"/>
<path d="M31.9399 23.1608C32.5256 22.5426 33.4753 22.5426 34.0611 23.1608L36.0609 25.2715C36.6467 25.8897 36.6467 26.8921 36.0609 27.5103C35.4752 28.1285 34.5255 28.1285 33.9398 27.5103L31.9399 25.3996C31.3541 24.7813 31.3541 23.779 31.9399 23.1608Z" fill="#26AD50"/>
<path d="M8.06257 25.3996C8.64832 24.7813 8.64832 23.779 8.06257 23.1608C7.47682 22.5426 6.52713 22.5426 5.94138 23.1608L3.94149 25.2715C3.35574 25.8897 3.35574 26.8921 3.94149 27.5103C4.52724 28.1285 5.47694 28.1285 6.06269 27.5103L8.06257 25.3996Z" fill="#26AD50"/>
</svg>
