<svg width="38" height="38" viewBox="0 0 38 38" fill="none" xmlns="http://www.w3.org/2000/svg">
<path d="M15.4099 2.83951C13.5378 1.01368 11.1458 0 8.66179 0H4.31818C1.93332 0 0 2.19767 0 4.90863V20.9531C0 21.9946 0.36396 22.9934 1.01181 23.7299L12.6306 36.9373C13.7937 38.2596 15.6504 38.3603 16.9191 37.17C18.3711 35.8076 18.4756 33.3199 17.1443 31.8065L15.0856 29.4663C14.7106 29.0401 14.7106 28.3491 15.0856 27.9229C15.4605 27.4968 16.0684 27.4968 16.4433 27.9229L22.3213 34.6047C23.4912 35.9346 25.3879 35.9346 26.5578 34.6047C27.7277 33.2749 27.7277 31.1188 26.5578 29.789L24.2311 27.1441C23.8027 26.6571 23.8027 25.8677 24.2311 25.3807C24.6594 24.8938 25.3539 24.8938 25.7823 25.3807L30.2175 30.4224C31.614 32.0099 33.9083 31.8916 35.1727 30.1669C36.2425 28.7076 36.2009 26.5879 35.1027 25.1858L24.3707 12.9862C24.0024 12.5676 23.4236 12.5075 22.9948 12.8435L14.9793 19.122C12.9524 20.7095 10.2175 20.4258 8.47699 18.4473C6.44041 16.1322 6.49234 12.361 8.59164 10.1195L15.4099 2.83951Z" fill="#366AF3"/>
<path d="M33.7826 19.52L36.9882 15.8761C37.636 15.1396 38 14.1408 38 13.0993V4.90863C38 2.19767 36.0667 0 33.6818 0H25.0674C22.9929 0.0101291 20.9982 0.913276 19.4855 2.52845L10.3655 12.2662C9.33229 13.3694 9.30674 15.2254 10.309 16.3648C11.1656 17.3385 12.5117 17.4781 13.5091 16.6968L21.5247 10.4183C22.9828 9.2761 24.9505 9.48026 26.2027 10.9037L33.7826 19.52Z" fill="#366AF3"/>
</svg>
