<svg width="36" height="36" viewBox="0 0 36 36" fill="none" xmlns="http://www.w3.org/2000/svg">
<path fill-rule="evenodd" clip-rule="evenodd" d="M22.5 21C22.5 23.4855 20.4855 25.5 18 25.5C15.5145 25.5 13.5 23.4855 13.5 21H22.5Z" stroke="#222222" stroke-width="3" stroke-linecap="round" stroke-linejoin="round"/>
<path fill-rule="evenodd" clip-rule="evenodd" d="M18 4.5C10.5555 4.5 4.5 10.5555 4.5 18C4.5 25.4445 10.5555 31.5 18 31.5C25.4445 31.5 31.5 25.443 31.5 18C31.5 10.557 25.443 4.5 18 4.5Z" stroke="#222222" stroke-width="3" stroke-linecap="round" stroke-linejoin="round"/>
<path d="M10.5 14.9999C11.0925 14.2724 11.9025 13.8599 12.75 13.8599C13.5975 13.8599 14.385 14.2724 15 14.9999" stroke="#222222" stroke-width="3" stroke-linecap="round" stroke-linejoin="round"/>
<path d="M21 14.9999C21.5925 14.2724 22.4025 13.8599 23.25 13.8599C24.0975 13.8599 24.885 14.2724 25.5 14.9999" stroke="#222222" stroke-width="3" stroke-linecap="round" stroke-linejoin="round"/>
</svg>
