<svg width="41" height="41" viewBox="0 0 41 41" fill="none" xmlns="http://www.w3.org/2000/svg">
<path fill-rule="evenodd" clip-rule="evenodd" d="M20.5 41C31.8218 41 41 31.8218 41 20.5C41 9.17816 31.8218 0 20.5 0C9.17816 0 0 9.17816 0 20.5C0 31.8218 9.17816 41 20.5 41ZM23.966 21.4292C24.0452 21.1329 24.0875 20.8214 24.0875 20.5C24.0875 18.5187 22.4813 16.9125 20.5 16.9125C18.5187 16.9125 16.9125 18.5187 16.9125 20.5C16.9125 22.4813 18.5187 24.0875 20.5 24.0875C20.8214 24.0875 21.1329 24.0452 21.4292 23.966L28.4566 30.9934C29.1571 31.6939 30.2929 31.6939 30.9934 30.9934C31.6939 30.2929 31.6939 29.1571 30.9934 28.4566L23.966 21.4292ZM20.0538 9.23383C19.2054 9.26743 18.4903 8.60685 18.4567 7.75838C18.4231 6.9099 19.0837 6.19484 19.9322 6.16124C24.3256 5.98725 28.6478 7.8957 31.479 11.2597C34.3103 14.6237 35.4528 19.2083 34.5313 23.5075C34.3533 24.3378 33.536 24.8666 32.7057 24.6886C31.8754 24.5106 31.3466 23.6933 31.5246 22.863C32.2451 19.5016 31.3401 15.87 29.1264 13.2398C26.9127 10.6095 23.489 9.09779 20.0538 9.23383Z" fill="#B750D1"/>
</svg>
