<svg width="35" height="27" viewBox="0 0 35 27" fill="none" xmlns="http://www.w3.org/2000/svg">
<path fill-rule="evenodd" clip-rule="evenodd" d="M7 0C3.13401 0 0 3.02208 0 6.75V20.25C0 23.9779 3.13401 27 7 27H28C31.866 27 35 23.9779 35 20.25V6.75C35 3.02208 31.866 0 28 0H7ZM8.12032 6.29738C7.37784 5.70074 6.27435 5.79747 5.65561 6.51344C5.03688 7.22941 5.13719 8.29348 5.87968 8.89012L13.0187 14.6268C15.6146 16.7129 19.3854 16.7129 21.9813 14.6268L29.1203 8.89012C29.8628 8.29348 29.9631 7.22941 29.3444 6.51344C28.7257 5.79747 27.6222 5.70074 26.8797 6.29738L19.7406 12.0341C18.4427 13.0771 16.5573 13.0771 15.2594 12.0341L8.12032 6.29738Z" fill="#366AF3"/>
</svg>
