<svg width="65" height="73" viewBox="0 0 65 73" fill="none" xmlns="http://www.w3.org/2000/svg">
<path fill-rule="evenodd" clip-rule="evenodd" d="M32.5 0C20.3344 0 10.4722 9.4487 10.4722 21.1043V25.0938C4.42628 26.7471 0 32.0797 0 38.4028V59.1611C0 66.8041 6.467 73 14.4444 73H50.5556C58.533 73 65 66.8041 65 59.1611V38.4028C65 32.0797 60.5737 26.7471 54.5278 25.0938V21.1043C54.5278 9.4487 44.6656 0 32.5 0ZM46.5833 24.564V21.1043C46.5833 13.6523 40.278 7.61137 32.5 7.61137C24.722 7.61137 18.4167 13.6523 18.4167 21.1043V24.564H46.5833ZM35.6598 51.5461C38.065 50.4231 39.7222 48.0581 39.7222 45.3223C39.7222 41.5008 36.4887 38.4028 32.5 38.4028C28.5113 38.4028 25.2778 41.5008 25.2778 45.3223C25.2778 48.0582 26.9351 50.4232 29.3403 51.5461V57.4309C29.3403 59.1028 30.755 60.4582 32.5001 60.4582C34.2451 60.4582 35.6598 59.1028 35.6598 57.4309V51.5461Z" fill="#FFBE2F"/>
</svg>
