<svg width="38" height="50" viewBox="0 0 38 50" fill="none" xmlns="http://www.w3.org/2000/svg">
<path d="M18.6328 0C13.1445 0 8.69531 4.44917 8.69531 9.9375V23.1875C8.69531 28.6758 13.1445 33.125 18.6328 33.125C24.1211 33.125 28.5703 28.6758 28.5703 23.1875V9.9375C28.5703 4.44917 24.1211 0 18.6328 0Z" fill="#26AD50"/>
<path d="M2.89841 16.1484C4.49921 16.1484 5.79691 17.4461 5.79691 19.0469V23.1875C5.79691 30.2766 11.5437 36.0234 18.6328 36.0234C25.7219 36.0234 31.4687 30.2766 31.4687 23.1875V19.0469C31.4687 17.4461 32.7664 16.1484 34.3672 16.1484C35.9679 16.1484 37.2656 17.4461 37.2656 19.0469V23.1875C37.2656 32.4922 30.4453 40.204 21.5312 41.5962V43.8741H26.914C28.5148 43.8741 29.8125 45.1717 29.8125 46.7725C29.8125 48.3733 28.5148 49.6709 26.914 49.6709H10.3516C8.75081 49.6709 7.45311 48.3733 7.45311 46.7725C7.45311 45.1717 8.75081 43.8741 10.3516 43.8741H15.7344V41.5962C6.82031 40.204 0 32.4922 0 23.1875V19.0469C0 17.4461 1.29767 16.1484 2.89841 16.1484Z" fill="#26AD50"/>
</svg>
