<svg width="34" height="32" viewBox="0 0 34 32" fill="none" xmlns="http://www.w3.org/2000/svg">
<path d="M0.226821 11.5879C1.05911 15.1627 3.07802 19.4262 8.2189 24.2646C13.3598 29.103 17.8893 31.0032 21.6876 31.7865C25.8994 32.6551 30.1448 30.7762 33.1937 27.9067C34.2688 26.8948 34.2688 25.2543 33.1937 24.2424L29.0233 20.3175C27.9411 19.2989 26.1864 19.2989 25.1042 20.3175C23.2472 22.0652 20.7081 23.5719 18.341 22.5015C17.0263 21.907 15.5392 20.838 13.6995 19.1066C11.8597 17.3751 10.724 15.9749 10.0924 14.7376C8.95505 12.5098 10.5559 10.1201 12.4129 8.3724C13.4952 7.35383 13.4952 5.7024 12.4129 4.68383L8.2426 0.758899C7.16747 -0.252966 5.42434 -0.252966 4.34921 0.758899C1.30032 3.62839 -0.696086 7.62393 0.226821 11.5879Z" fill="#844BEC"/>
</svg>
