<svg width="40" height="40" viewBox="0 0 40 40" fill="none" xmlns="http://www.w3.org/2000/svg">
<path fill-rule="evenodd" clip-rule="evenodd" d="M40 20C40 31.0457 31.0457 40 20 40C8.9543 40 0 31.0457 0 20C0 8.9543 8.9543 0 20 0C31.0457 0 40 8.9543 40 20ZM22.8846 30.7692C22.8846 32.3624 21.5931 33.6538 20 33.6538C18.4069 33.6538 17.1154 32.3624 17.1154 30.7692C17.1154 29.1761 18.4069 27.8846 20 27.8846C21.5931 27.8846 22.8846 29.1761 22.8846 30.7692ZM16.1531 15.3846C16.1531 13.9653 17.576 12.3077 19.9999 12.3077C22.4238 12.3077 23.8467 13.9653 23.8467 15.3846C23.8467 16.8244 22.7547 17.4403 21.6241 18.0913C20.99 18.4564 20.0925 18.9731 19.3915 19.6238C18.4363 20.5105 17.6922 21.7534 17.6922 23.4615C17.6922 24.736 18.7254 25.7692 19.9999 25.7692C21.2744 25.7692 22.3076 24.736 22.3076 23.4615C22.3076 22.7222 23.7515 22.1968 24.2463 21.906C26.7162 20.4546 28.4621 18.3875 28.4621 15.3846C28.4621 10.8562 24.3741 7.69231 19.9999 7.69231C15.6257 7.69231 11.5377 10.8562 11.5377 15.3846C11.5377 16.6591 12.5709 17.6923 13.8454 17.6923C15.1199 17.6923 16.1531 16.6591 16.1531 15.3846Z" fill="#00BEA2"/>
</svg>
