<svg width="36" height="34" viewBox="0 0 36 34" fill="none" xmlns="http://www.w3.org/2000/svg">
<path fill-rule="evenodd" clip-rule="evenodd" d="M0 6.46299C0 2.89358 2.68629 0 5.99999 0H24C27.3137 0 30 2.89358 30 6.46299V17.7732C30 21.3426 27.3137 24.2362 24 24.2362H18.2727L9.58056 31.1024C8.09437 32.2763 5.99999 31.1331 5.99999 29.1479L5.99999 24.2362C2.68629 24.2362 0 21.3426 0 17.7732V6.46299ZM7.49999 14.5417C6.87867 14.5417 6.37499 15.0843 6.37499 15.7535C6.37499 16.4228 6.87867 16.9654 7.49999 16.9654H17.25C17.8713 16.9654 18.375 16.4228 18.375 15.7535C18.375 15.0843 17.8713 14.5417 17.25 14.5417H7.49999ZM6.37499 9.29055C6.37499 8.62129 6.87867 8.07874 7.49999 8.07874H22.5C23.1213 8.07874 23.625 8.62129 23.625 9.29055C23.625 9.95982 23.1213 10.5024 22.5 10.5024H7.49999C6.87867 10.5024 6.37499 9.95982 6.37499 9.29055Z" fill="#00BEA2"/>
<path d="M19.7729 25.8519L15.6818 29.0835H22.2949L27.9194 33.5265C29.4056 34.7004 31.5 33.5572 31.5 31.572V28.8799C34.0878 28.1624 36 25.632 36 22.6205V11.3103C36 8.29878 34.0878 5.76836 31.5 5.0509V19.3889C31.5 22.9583 28.8137 25.8519 25.5 25.8519H19.7729Z" fill="#00BEA2"/>
</svg>
