<svg width="35" height="35" viewBox="0 0 35 35" fill="none" xmlns="http://www.w3.org/2000/svg">
<path d="M6.14734 27.2963V32C6.09822 32.5 6.11754 33.1175 6.75 33.75C7.5 34.25 8 34 9 33.5C9.8 33.1 13.0502 31.523 14.5753 30.7845C11.392 30.3101 8.50038 29.0745 6.14734 27.2963Z" fill="#B750D1"/>
<path fill-rule="evenodd" clip-rule="evenodd" d="M35 15.5C35 24.0604 27.165 31 17.5 31C16.5035 31 15.5264 30.9262 14.5753 30.7845C11.392 30.3101 8.50038 29.0745 6.14734 27.2963C2.38537 24.4533 0 20.2234 0 15.5C0 6.93959 7.83502 0 17.5 0C27.165 0 35 6.93959 35 15.5ZM9.05118 19.764C9.05118 19.0434 9.58844 18.4592 10.2512 18.4592H20.6512C21.3139 18.4592 21.8512 19.0434 21.8512 19.764C21.8512 20.4847 21.3139 21.0689 20.6512 21.0689H10.2512C9.58844 21.0689 9.05118 20.4847 9.05118 19.764ZM9.05118 12.8048C9.05118 12.0842 9.58844 11.5 10.2512 11.5H26.2512C26.9139 11.5 27.4512 12.0842 27.4512 12.8048C27.4512 13.5255 26.9139 14.1097 26.2512 14.1097H10.2512C9.58844 14.1097 9.05118 13.5255 9.05118 12.8048Z" fill="#B750D1"/>
</svg>
