<svg width="27" height="35" viewBox="0 0 27 35" fill="none" xmlns="http://www.w3.org/2000/svg">
<path fill-rule="evenodd" clip-rule="evenodd" d="M15.2486 7.00108C18.483 6.99762 19.983 8.49762 19.9957 11.8028L19.9957 21.3028C19.983 24.4976 18.483 26.0011 15.216 26.0011L10.716 25.9976C7.48303 25.9976 5.98303 24.4976 5.99573 21.2959L5.99573 11.7959C5.98303 8.49762 7.48303 6.99762 10.7486 6.99762L15.2486 7.00108Z" fill="#26AD50"/>
<path fill-rule="evenodd" clip-rule="evenodd" d="M26.012 7.00709C26.0143 3.1411 23.1061 0.00603044 19.5164 0.00472279L6.51668 -1.26521e-05C2.92692 -0.00132031 0.0149579 3.13163 0.0126292 6.99762L-2.01968e-05 27.9976C-0.00234889 31.8636 2.90584 34.9987 6.4956 35L19.4953 35.0047C23.085 35.006 25.997 31.8731 25.9993 28.0071L26.012 7.00709ZM14.4665 31.4987C14.466 32.3281 13.8005 33.0001 12.9799 32.9998C12.1594 32.9995 11.4946 32.327 11.4951 31.4976C11.4956 30.6683 12.1612 29.9962 12.9817 29.9965C13.8023 29.9968 14.467 30.6693 14.4665 31.4987ZM22.5038 9.30281C22.5054 6.65185 20.38 4.50204 17.7567 4.50109L8.25668 4.49762C5.63333 4.49667 3.506 6.45012 3.5044 9.10108L3.49573 23.5011C3.49413 26.152 5.61887 28.4967 8.24223 28.4976L17.7422 28.5011C20.3656 28.502 22.4935 26.3538 22.4951 23.7028L22.5038 9.30281ZM15.2486 7.00108C18.483 6.99762 19.983 8.49762 19.9957 11.8028L19.9957 21.3028C19.983 24.4976 18.483 26.0011 15.216 26.0011L10.716 25.9976C7.48303 25.9976 5.98303 24.4976 5.99573 21.2959L5.99573 11.7959C5.98303 8.49762 7.48303 6.99762 10.7486 6.99762L15.2486 7.00108Z" fill="#26AD50"/>
</svg>
