<svg width="232" height="166" viewBox="0 0 232 166" fill="none" xmlns="http://www.w3.org/2000/svg">
<rect width="232" height="166" rx="16" fill="white"/>
<path fill-rule="evenodd" clip-rule="evenodd" d="M116 22C97.0485 22 81.6853 37.3546 81.6853 56.2954C81.6853 75.2362 97.0485 90.5908 116 90.5908C134.951 90.5908 150.315 75.2362 150.315 56.2954C150.315 37.3546 134.951 22 116 22ZM90.5886 56.2954C90.5886 42.269 101.966 30.8983 116 30.8983C130.034 30.8983 141.411 42.269 141.411 56.2954C141.411 70.3219 130.034 81.6925 116 81.6925C101.966 81.6925 90.5886 70.3219 90.5886 56.2954Z" fill="#366AF3"/>
<path fill-rule="evenodd" clip-rule="evenodd" d="M31.4191 76.78C31.4191 63.675 42.0487 53.0512 55.1611 53.0512C68.2734 53.0512 78.9031 63.675 78.9031 76.78C78.9031 89.885 68.2734 100.509 55.1611 100.509C42.0487 100.509 31.4191 89.885 31.4191 76.78ZM55.1611 61.9495C46.9659 61.9495 40.3223 68.5893 40.3223 76.78C40.3223 84.9706 46.9659 91.6104 55.1611 91.6104C63.3563 91.6104 69.9998 84.9706 69.9998 76.78C69.9998 68.5893 63.3563 61.9495 55.1611 61.9495Z" fill="#366AF3"/>
<path d="M175.563 115.526C179.991 115.824 184.838 116.558 189.01 118.285C192.064 119.55 194.538 121.261 196.251 123.525C197.925 125.738 199.097 128.774 199.097 133.136V134.619C199.097 137.076 201.09 139.068 203.548 139.068C206.007 139.068 208 137.076 208 134.619V133.136C208 127.047 206.316 122.077 203.353 118.159C200.429 114.293 196.486 111.749 192.418 110.065C184.414 106.751 175.101 106.441 169.419 106.441L169.142 106.441C169.984 107.321 170.796 108.252 171.57 109.237C173.105 111.19 174.44 113.288 175.563 115.526Z" fill="#366AF3"/>
<path d="M62.8581 106.441L62.5805 106.441C56.8989 106.441 47.5864 106.751 39.5824 110.065C35.5138 111.749 31.5708 114.293 28.6468 118.159C25.684 122.077 24 127.047 24 133.136V134.619C24 137.076 25.9931 139.068 28.4516 139.068C30.9102 139.068 32.9032 137.076 32.9032 134.619V133.136C32.9032 128.774 34.0754 125.738 35.7492 123.525C37.462 121.261 39.9361 119.55 42.9899 118.285C47.1619 116.558 52.0094 115.824 56.4373 115.526C57.5601 113.288 58.8952 111.19 60.43 109.237C61.2041 108.252 62.0155 107.321 62.8581 106.441Z" fill="#366AF3"/>
<path fill-rule="evenodd" clip-rule="evenodd" d="M176.839 53.0512C163.726 53.0512 153.097 63.675 153.097 76.78C153.097 89.885 163.726 100.509 176.839 100.509C189.951 100.509 200.581 89.885 200.581 76.78C200.581 63.675 189.951 53.0512 176.839 53.0512ZM162 76.78C162 68.5893 168.644 61.9495 176.839 61.9495C185.034 61.9495 191.678 68.5893 191.678 76.78C191.678 84.9706 185.034 91.6104 176.839 91.6104C168.644 91.6104 162 84.9706 162 76.78Z" fill="#366AF3"/>
<path d="M73.2662 119.315C70.4089 122.95 68.516 127.822 68.516 134.569V140.551C68.516 143.008 66.5229 145 64.0643 145C61.6058 145 59.6127 143.008 59.6127 140.551V134.569C59.6127 126.013 62.0661 119.16 66.2646 113.818C70.4147 108.538 76.0381 105.024 81.9467 102.67C93.642 98.0098 107.38 97.5426 116 97.5426C124.62 97.5426 138.358 98.0098 150.053 102.67C155.962 105.024 161.585 108.538 165.735 113.818C169.934 119.16 172.387 126.013 172.387 134.569V140.551C172.387 143.008 170.394 145 167.936 145C165.477 145 163.484 143.008 163.484 140.551V134.569C163.484 127.822 161.591 122.95 158.734 119.315C155.828 115.617 151.686 112.9 146.756 110.935C136.775 106.958 124.545 106.441 116 106.441C107.455 106.441 95.2249 106.958 85.2437 110.935C80.314 112.9 76.172 115.617 73.2662 119.315Z" fill="#366AF3"/>
<path d="M41.5001 73.6981C41.5001 76.3532 43.5093 76.5934 44.3004 76.4688C45.9004 76.217 45.9004 74.5377 47.5 74.5377C49.1003 74.5377 49.1003 76.217 50.7002 76.4688C51.4913 76.5934 53.5001 76.4688 53.5001 73.6981C53.5001 72.2036 50.7 69.5 47.5001 69.5C44.3004 69.5 41.5001 72.2025 41.5001 73.6981Z" fill="#366AF3"/>
<path d="M56.5 73.6981C56.5 76.3532 58.5092 76.5934 59.3003 76.4688C60.9002 76.217 60.9002 74.5377 62.4999 74.5377C64.1001 74.5377 64.1001 76.217 65.7001 76.4688C66.4912 76.5934 68.5 76.4688 68.5 73.6981C68.5 72.2036 65.6999 69.5 62.5 69.5C59.3003 69.5 56.5 72.2025 56.5 73.6981Z" fill="#366AF3"/>
<path d="M46.5 77.9623C48.1673 77.9623 48.5184 78.8674 49.1667 80.5337C49.8336 82.2479 52.3318 84.8194 56.5 84.8194C59.0009 84.8194 59 87.3908 59 87.3908C59 87.3908 59.0009 89.9622 56.5 89.9623C53.8154 89.9623 51.5006 89.1051 49.8333 88.248C48.166 87.3909 44 83.9623 44 80.5337C44 78.8194 44.8327 77.9622 46.5 77.9623Z" fill="#366AF3"/>
<path d="M163.5 73.7293C163.5 76.3844 165.509 76.6245 166.3 76.5C167.9 76.2481 167.9 74.5689 169.5 74.5689C171.1 74.5689 171.1 76.2481 172.7 76.5C173.491 76.6245 175.5 76.5 175.5 73.7293C175.5 72.2347 172.7 69.5312 169.5 69.5312C166.3 69.5312 163.5 72.2337 163.5 73.7293Z" fill="#366AF3"/>
<path d="M178.5 73.7293C178.5 76.3844 180.509 76.6245 181.3 76.5C182.9 76.2481 182.9 74.5689 184.5 74.5689C186.1 74.5689 186.1 76.2481 187.7 76.5C188.491 76.6245 190.5 76.5 190.5 73.7293C190.5 72.2347 187.7 69.5312 184.5 69.5312C181.3 69.5312 178.5 72.2337 178.5 73.7293Z" fill="#366AF3"/>
<path d="M169 83C169 80.356 171.191 80.0858 172.205 80.2098C174.256 80.4607 174.642 82.1639 176.692 82.1639C178.744 82.1639 178.701 80.4607 180.752 80.2098C181.766 80.0858 184 80.2409 184 83C184 85.647 180.795 87.1805 176.692 87.1805C172.59 87.1805 169 85.644 169 83Z" fill="#366AF3"/>
<path d="M93.0002 50.597C93.0002 54.7693 96.3488 55.1467 97.6674 54.951C100.334 54.5552 100.334 51.9164 103 51.9164C105.667 51.9164 105.667 54.5552 108.334 54.951C109.652 55.1467 113 54.951 113 50.597C113 48.2485 108.333 44 103 44C97.6673 44 93.0002 48.2468 93.0002 50.597Z" fill="#366AF3"/>
<path d="M119 50.597C119 54.7693 122.349 55.1467 123.667 54.951C126.334 54.5552 126.334 51.9164 129 51.9164C131.667 51.9164 131.667 54.5552 134.333 54.951C135.652 55.1467 139 54.951 139 50.597C139 48.2485 134.333 44 129 44C123.667 44 119 48.2468 119 50.597Z" fill="#366AF3"/>
<path fill-rule="evenodd" clip-rule="evenodd" d="M126.784 60.5001L105.736 60.5C104.859 60.5001 103.169 60.5394 102.521 62.9C101.518 66.5524 103.398 71.2999 105.737 73.7C110.234 78.315 113.922 78.5 116.261 78.5C118.599 78.5 122.108 78.3079 126.784 73.7C129.123 71.2999 130.918 66.452 130 62.9001C129.123 60.5001 127.564 60.5001 126.784 60.5001ZM122.44 67.7H110.279C110.669 68.9 112.851 71.3002 116.36 71.3C119.869 71.2998 122.051 68.9 122.44 67.7Z" fill="#366AF3"/>
</svg>
