<svg width="151" height="151" viewBox="0 0 151 151" fill="none" xmlns="http://www.w3.org/2000/svg">
<g clip-path="url(#clip0_2699_11446)">
<path d="M75.4971 1.11621C34.4175 1.11621 1.11622 34.4175 1.11621 75.4971C1.11621 116.577 34.4175 149.878 75.4971 149.878C116.577 149.878 149.878 116.577 149.878 75.4971C149.878 34.4175 116.577 1.11622 75.4971 1.11621Z" fill="#2291FF" stroke="#2291FF" stroke-width="2.24363" stroke-linecap="round"/>
<path d="M32.5815 80.3177C53.7974 108.353 95.4714 102.291 118.203 68.1943" stroke="#153177" stroke-width="10.6079" stroke-linecap="round"/>
<mask id="mask0_2699_11446" style="mask-type:alpha" maskUnits="userSpaceOnUse" x="36" y="43" width="30" height="35">
<ellipse cx="51.1404" cy="60.8276" rx="14.7703" ry="16.8804" fill="white"/>
</mask>
<g mask="url(#mask0_2699_11446)">
<ellipse cx="51.1404" cy="60.8276" rx="14.7703" ry="16.8804" fill="white"/>
<ellipse cx="59.2889" cy="56.7534" rx="14.7703" ry="16.8804" fill="#153177"/>
</g>
<mask id="mask1_2699_11446" style="mask-type:alpha" maskUnits="userSpaceOnUse" x="74" y="43" width="31" height="35">
<ellipse cx="89.3768" cy="60.8276" rx="14.7703" ry="16.8804" fill="white"/>
</mask>
<g mask="url(#mask1_2699_11446)">
<ellipse cx="89.3768" cy="60.8276" rx="14.7703" ry="16.8804" fill="white"/>
<ellipse cx="97.5257" cy="56.7534" rx="14.7703" ry="16.8804" fill="#153177"/>
</g>
</g>
<defs>
<clipPath id="clip0_2699_11446">
<rect width="151" height="151" fill="white"/>
</clipPath>
</defs>
</svg>
