<svg width="114" height="114" viewBox="0 0 114 114" fill="none" xmlns="http://www.w3.org/2000/svg">
<circle cx="56.6486" cy="56.6486" r="54.1486" fill="#F6F6F6" stroke="#222222" stroke-width="5"/>
<path d="M55.7441 67.4042C61.117 67.4042 69.4947 67.7093 76.5684 70.5869C80.1273 72.0347 83.4366 74.1649 85.8564 77.3085C88.2919 80.4726 89.7441 84.5573 89.7441 89.7499C89.7441 90.6224 89.0393 91.3271 88.1738 91.3271C87.3085 91.3269 86.6045 90.6223 86.6045 89.7499C86.6045 85.1862 85.3422 81.7966 83.3721 79.2372C81.3863 76.6576 78.5981 74.815 75.3896 73.5097C68.9277 70.881 61.0894 70.5576 55.7441 70.5576C50.3989 70.5576 42.5605 70.881 36.0986 73.5097C32.8902 74.815 30.102 76.6576 28.1162 79.2372C26.1461 81.7966 24.8838 85.1862 24.8838 89.7499C24.8838 90.6223 24.1798 91.3269 23.3145 91.3271C22.4489 91.3271 21.7441 90.6224 21.7441 89.7499C21.7442 84.5573 23.1964 80.4726 25.6318 77.3085C28.0517 74.1649 31.361 72.0347 34.9199 70.5869C41.9935 67.7093 50.3713 67.4042 55.7441 67.4042ZM60.5742 79.8652H75.7539C77.3816 79.8652 78.7041 81.1899 78.7041 82.8271V86.9814C78.7039 88.6184 77.3814 89.9423 75.7539 89.9423H60.5742C58.9467 89.9423 57.6243 88.6184 57.624 86.9814V82.8271C57.624 81.1899 58.9466 79.8652 60.5742 79.8652ZM60.7637 86.789H75.5645V83.0195H60.7637V86.789ZM55.7441 20.3271C66.8987 20.3271 75.9443 29.4007 75.9443 40.5966C75.9442 51.7924 66.8986 60.8652 55.7441 60.8652C44.5897 60.8652 35.5441 51.7924 35.5439 40.5966C35.5439 29.4007 44.5896 20.3271 55.7441 20.3271ZM55.7441 23.4814C46.3206 23.4814 38.6846 31.1456 38.6846 40.5966C38.6847 50.0475 46.3207 57.7119 55.7441 57.7119C65.1676 57.7119 72.8035 50.0475 72.8037 40.5966C72.8037 31.1456 65.1677 23.4814 55.7441 23.4814ZM59.6338 45.3642C60.0664 45.3122 60.7148 45.3272 61.2324 45.6005C61.482 45.7323 61.7013 45.9233 61.8613 46.2031C62.0225 46.4848 62.1396 46.8844 62.1396 47.455C62.1396 48.4377 61.5453 49.265 60.4072 49.873C59.2626 50.4844 57.6276 50.8319 55.7441 50.832C53.861 50.832 52.1279 50.4838 50.8857 49.8652C49.6374 49.2434 48.9854 48.41 48.9854 47.455C48.9854 46.4001 49.4129 45.8972 49.8818 45.6357C50.3945 45.3499 51.0338 45.3142 51.4502 45.3642C52.2702 45.4629 52.7472 45.8327 53.3301 46.2626C53.9215 46.6989 54.6075 47.1796 55.7441 47.1796C56.3019 47.1796 56.7404 47.0643 57.1133 46.8749C57.4762 46.6906 57.7563 46.4453 57.9932 46.2333C58.4643 45.8117 58.8353 45.4603 59.6338 45.3642ZM50.4355 32.7206C51.4499 32.7206 52.2948 33.5225 52.2949 34.581V36.9423C52.2947 37.9698 51.46 38.8027 50.4355 38.8027C49.4113 38.8024 48.5774 37.9697 48.5771 36.9423V34.5917C48.6002 33.5152 49.4312 32.7209 50.4355 32.7206ZM61.0518 32.7206C62.066 32.7208 62.9101 33.5226 62.9102 34.581V36.9423C62.9099 37.9697 62.076 38.8025 61.0518 38.8027C60.0273 38.8027 59.1926 37.9698 59.1924 36.9423V34.5917C59.2155 33.515 60.0472 32.7206 61.0518 32.7206Z" fill="#222222" stroke="black"/>
</svg>
