<svg width="69" height="72" viewBox="0 0 69 72" fill="none" xmlns="http://www.w3.org/2000/svg">
<path d="M34.5 47.5771C39.8728 47.5771 48.2506 47.8822 55.3242 50.7598C58.8831 52.2076 62.1924 54.3378 64.6123 57.4814C67.0478 60.6455 68.5 64.7302 68.5 69.9229C68.5 70.7953 67.7952 71.5 66.9297 71.5C66.0643 71.4998 65.3604 70.7952 65.3604 69.9229C65.3603 65.3591 64.0981 61.9695 62.1279 59.4102C60.1422 56.8305 57.354 54.9879 54.1455 53.6826C47.6836 51.0539 39.8452 50.7305 34.5 50.7305C29.1548 50.7305 21.3164 51.0539 14.8545 53.6826C11.646 54.9879 8.85782 56.8305 6.87207 59.4102C4.90193 61.9695 3.63969 65.3591 3.63965 69.9229C3.63965 70.7952 2.93569 71.4998 2.07031 71.5C1.2048 71.5 0.5 70.7953 0.5 69.9229C0.500043 64.7302 1.95222 60.6455 4.3877 57.4814C6.80755 54.3378 10.1169 52.2076 13.6758 50.7598C20.7494 47.8822 29.1272 47.5771 34.5 47.5771ZM39.3301 60.0381H54.5098C56.1374 60.0381 57.46 61.3628 57.46 63V67.1543C57.4597 68.7913 56.1373 70.1152 54.5098 70.1152H39.3301C37.7026 70.1152 36.3801 68.7913 36.3799 67.1543V63C36.3799 61.3628 37.7024 60.0381 39.3301 60.0381ZM39.5195 66.9619H54.3203V63.1924H39.5195V66.9619ZM34.5 0.5C45.6546 0.5 54.7002 9.57357 54.7002 20.7695C54.7 31.9654 45.6545 41.0381 34.5 41.0381C23.3455 41.0381 14.3 31.9654 14.2998 20.7695C14.2998 9.57357 23.3454 0.500002 34.5 0.5ZM34.5 3.6543C25.0765 3.6543 17.4404 11.3185 17.4404 20.7695C17.4406 30.2204 25.0766 37.8848 34.5 37.8848C43.9234 37.8848 51.5594 30.2204 51.5596 20.7695C51.5596 11.3185 43.9236 3.6543 34.5 3.6543ZM38.3896 25.5371C38.8223 25.4851 39.4706 25.5001 39.9883 25.7734C40.2378 25.9052 40.4572 26.0963 40.6172 26.376C40.7783 26.6577 40.8955 27.0574 40.8955 27.6279C40.8955 28.6107 40.3012 29.4379 39.1631 30.0459C38.0184 30.6573 36.3835 31.0049 34.5 31.0049C32.6168 31.0049 30.8837 30.6567 29.6416 30.0381C28.3933 29.4163 27.7412 28.5829 27.7412 27.6279C27.7412 26.573 28.1688 26.0701 28.6377 25.8086C29.1503 25.5228 29.7897 25.4871 30.2061 25.5371C31.026 25.6358 31.503 26.0056 32.0859 26.4355C32.6774 26.8718 33.3634 27.3525 34.5 27.3525C35.0577 27.3525 35.4963 27.2372 35.8691 27.0479C36.232 26.8635 36.5122 26.6182 36.749 26.4062C37.2201 25.9846 37.5911 25.6332 38.3896 25.5371ZM29.1914 12.8936C30.2058 12.8936 31.0507 13.6954 31.0508 14.7539V17.1152C31.0505 18.1427 30.2158 18.9756 29.1914 18.9756C28.1672 18.9754 27.3333 18.1426 27.333 17.1152V14.7646C27.3561 13.6881 28.187 12.8938 29.1914 12.8936ZM39.8076 12.8936C40.8218 12.8938 41.6659 13.6955 41.666 14.7539V17.1152C41.6658 18.1426 40.8319 18.9754 39.8076 18.9756C38.7832 18.9756 37.9485 18.1427 37.9482 17.1152V14.7646C37.9713 13.688 38.803 12.8936 39.8076 12.8936Z" fill="#222222" stroke="black"/>
</svg>
