<svg width="68" height="68" viewBox="0 0 68 68" fill="none" xmlns="http://www.w3.org/2000/svg">
<path d="M57 41C57 41 64 34.25 64 34C64 33.75 57 27 57 27" stroke="#2291FF" stroke-width="8" stroke-linecap="round"/>
<path d="M11 41C11 41 4 34.25 4 34C4 33.75 11 27 11 27" stroke="#2291FF" stroke-width="8" stroke-linecap="round"/>
<path d="M28 57C28 57 34.75 64 35 64C35.25 64 42 57 42 57" stroke="#2291FF" stroke-width="8" stroke-linecap="round"/>
<path d="M7.94967 50.9999C7.94967 50.9999 7.77289 60.7226 7.94967 60.8994C8.12644 61.0762 17.8492 60.8994 17.8492 60.8994" stroke="#2291FF" stroke-width="8" stroke-linecap="round"/>
<path d="M16.8492 6.94967C16.8492 6.94967 7.12652 6.77289 6.94975 6.94967C6.77297 7.12644 6.94975 16.8492 6.94975 16.8492" stroke="#2291FF" stroke-width="8" stroke-linecap="round"/>
<path d="M60.8995 16.8492C60.8995 16.8492 61.0762 7.12652 60.8995 6.94975C60.7227 6.77297 51 6.94975 51 6.94975" stroke="#2291FF" stroke-width="8" stroke-linecap="round"/>
<path d="M50.9999 60.8995C50.9999 60.8995 60.7226 61.0762 60.8994 60.8995C61.0762 60.7227 60.8994 51 60.8994 51" stroke="#2291FF" stroke-width="8" stroke-linecap="round"/>
<path d="M27 11C27 11 33.75 4 34 4C34.25 4 41 11 41 11" stroke="#2291FF" stroke-width="8" stroke-linecap="round"/>
</svg>
