<svg width="114" height="116" viewBox="0 0 114 116" fill="none" xmlns="http://www.w3.org/2000/svg">
<path d="M28.5 14.2264C28.5 6.36938 34.8799 0 42.75 0H71.25C79.1201 0 85.5 6.36938 85.5 14.2264V16.4151C85.5 18.2283 84.0277 19.6981 82.2115 19.6981C80.3954 19.6981 78.9231 18.2283 78.9231 16.4151V14.2264C78.9231 9.9957 75.4877 6.56604 71.25 6.56604H42.75C38.5123 6.56604 35.0769 9.99571 35.0769 14.2264V16.4151C35.0769 18.2283 33.6046 19.6981 31.7885 19.6981C29.9723 19.6981 28.5 18.2283 28.5 16.4151V14.2264Z" fill="#222222"/>
<path d="M60.2885 52.5283C60.2885 50.7151 58.8162 49.2453 57 49.2453C55.1838 49.2453 53.7115 50.7151 53.7115 52.5283V66.7547H39.4615C37.6454 66.7547 36.1731 68.2246 36.1731 70.0377C36.1731 71.8509 37.6454 73.3208 39.4615 73.3208H53.7115V87.5472C53.7115 89.3603 55.1838 90.8302 57 90.8302C58.8162 90.8302 60.2885 89.3603 60.2885 87.5472V73.3208H74.5385C76.3546 73.3208 77.8269 71.8509 77.8269 70.0377C77.8269 68.2246 76.3546 66.7547 74.5385 66.7547H60.2885V52.5283Z" fill="#222222"/>
<path fill-rule="evenodd" clip-rule="evenodd" d="M0 47.0566C0 34.3645 10.3061 24.0755 23.0192 24.0755H90.9808C103.694 24.0755 114 34.3645 114 47.0566V93.0189C114 105.711 103.694 116 90.9808 116H23.0192C10.3061 116 0 105.711 0 93.0189V47.0566ZM23.0192 30.6415C13.9384 30.6415 6.57692 37.9908 6.57692 47.0566V93.0189C6.57692 102.085 13.9384 109.434 23.0192 109.434H90.9808C100.062 109.434 107.423 102.085 107.423 93.0189V47.0566C107.423 37.9908 100.062 30.6415 90.9808 30.6415H23.0192Z" fill="#222222"/>
</svg>
