<svg width="114" height="103" viewBox="0 0 114 103" fill="none" xmlns="http://www.w3.org/2000/svg">
<path fill-rule="evenodd" clip-rule="evenodd" d="M0 22.8889C0 10.2477 10.2079 0 22.8 0H91.2C103.792 0 114 10.2477 114 22.8889V80.1111C114 92.7523 103.792 103 91.2 103H22.8C10.2079 103 0 92.7523 0 80.1111V22.8889ZM23.0445 30.2871C25.2705 28.0524 28.8795 28.0525 31.1055 30.2871L45.5857 44.8238C49.2586 48.5111 49.2586 54.4892 45.5857 58.1764L31.1055 72.7129C28.8795 74.9476 25.2705 74.9476 23.0445 72.7129C20.8185 70.4782 20.8185 66.8551 23.0445 64.6204L36.114 51.5001L23.0445 38.3795C20.8185 36.1449 20.8185 32.5218 23.0445 30.2871ZM62.7 62.9444C59.552 62.9444 57 65.5064 57 68.6667C57 71.827 59.552 74.3889 62.7 74.3889H91.2C94.348 74.3889 96.9 71.827 96.9 68.6667C96.9 65.5064 94.348 62.9444 91.2 62.9444H62.7Z" fill="#222222"/>
</svg>
