<svg width="122" height="95" viewBox="0 0 122 95" fill="none" xmlns="http://www.w3.org/2000/svg">
<path d="M63.6012 7.91667C63.6012 3.54441 67.1665 0 71.5647 0H82.1827C86.5808 0 90.1461 3.54441 90.1461 7.91667V87.0833C90.1461 91.4556 86.5808 95 82.1827 95H71.5647C67.1665 95 63.6012 91.4556 63.6012 87.0833V7.91667Z" fill="#222222"/>
<path d="M95.455 7.91667C95.455 3.54441 99.0204 0 103.419 0H114.037C118.435 0 122 3.54441 122 7.91667V87.0833C122 91.4556 118.435 95 114.037 95H103.419C99.0204 95 95.455 91.4556 95.455 87.0833V7.91667Z" fill="#222222"/>
<path d="M44.9861 3.34542C41.0001 1.49762 36.2619 3.21201 34.4032 7.17462L0.748017 78.924C-1.11071 82.8866 0.613829 87.5969 4.59988 89.4447L14.223 93.9056C18.2091 95.7534 22.9472 94.039 24.8059 90.0764L58.4611 18.3271C60.3199 14.3644 58.5953 9.65418 54.6093 7.80639L44.9861 3.34542Z" fill="#222222"/>
</svg>
