<svg width="113" height="105" viewBox="0 0 113 105" fill="none" xmlns="http://www.w3.org/2000/svg">
<path d="M46.2273 13.125C46.2273 5.87626 51.9763 0 59.0682 0H100.159C107.251 0 113 5.87626 113 13.125V91.875C113 99.1237 107.251 105 100.159 105H73.4088C74.096 103.392 74.4773 101.617 74.4773 99.75C74.4773 98.6497 74.3448 97.5811 74.0953 96.5599C83.1499 94.3672 89.8864 86.0502 89.8864 76.125V39.375C89.8864 27.777 80.6878 18.375 69.3409 18.375H46.2273V13.125Z" fill="#222222"/>
<path d="M15.4091 26.25C6.89889 26.25 0 33.3015 0 42V73.5C0 82.1985 6.89889 89.25 15.4091 89.25H30.8182V94.5H20.5455C17.7087 94.5 15.4091 96.8505 15.4091 99.75C15.4091 102.649 17.7087 105 20.5455 105H61.6364C64.4731 105 66.7727 102.649 66.7727 99.75C66.7727 96.8505 64.4731 94.5 61.6364 94.5H51.3636V89.25H66.7727C75.2829 89.25 82.1818 82.1985 82.1818 73.5V42C82.1818 33.3015 75.2829 26.25 66.7727 26.25H15.4091Z" fill="#222222"/>
</svg>
