<svg width="114" height="119" viewBox="0 0 114 119" fill="none" xmlns="http://www.w3.org/2000/svg">
<path fill-rule="evenodd" clip-rule="evenodd" d="M22.8 34.3269C22.8 15.3687 38.1119 0 57 0C75.8881 0 91.2 15.3687 91.2 34.3269C91.2 53.2852 75.8881 68.6538 57 68.6538C38.1119 68.6538 22.8 53.2852 22.8 34.3269ZM57 6.86538C41.8895 6.86538 29.64 19.1603 29.64 34.3269C29.64 49.4935 41.8895 61.7885 57 61.7885C72.1105 61.7885 84.36 49.4935 84.36 34.3269C84.36 19.1603 72.1105 6.86538 57 6.86538Z" fill="#222222"/>
<path d="M12.0083 98.6959C8.87507 102.768 6.84 108.188 6.84 115.567C6.84 117.463 5.30881 119 3.42 119C1.53119 119 0 117.463 0 115.567C0 106.821 2.44885 99.8875 6.5949 94.4994C10.707 89.1555 16.3114 85.5591 22.2842 83.1284C34.1324 78.3068 48.1155 77.8077 57 77.8077C65.8845 77.8077 79.8676 78.3068 91.7158 83.1284C97.6886 85.5591 103.293 89.1555 107.405 94.4994C111.551 99.8875 114 106.821 114 115.567C114 117.463 112.469 119 110.58 119C108.691 119 107.16 117.463 107.16 115.567C107.16 108.188 105.125 102.768 101.992 98.6959C98.8246 94.58 94.3543 91.6104 89.1457 89.4907C78.6311 85.2118 65.8242 84.6731 57 84.6731C48.1758 84.6731 35.3689 85.2118 24.8543 89.4907C19.6457 91.6104 15.1754 94.58 12.0083 98.6959Z" fill="#222222"/>
<path fill-rule="evenodd" clip-rule="evenodd" d="M64.98 98.4038C61.832 98.4038 59.28 100.965 59.28 104.125V110.99C59.28 114.15 61.832 116.712 64.98 116.712H90.06C93.208 116.712 95.76 114.15 95.76 110.99V104.125C95.76 100.965 93.208 98.4038 90.06 98.4038H64.98ZM66.12 109.846V105.269H88.92V109.846H66.12Z" fill="#222222"/>
</svg>
