<svg width="111" height="111" viewBox="0 0 111 111" fill="none" xmlns="http://www.w3.org/2000/svg">
<path fill-rule="evenodd" clip-rule="evenodd" d="M55.5 0C24.8482 0 0 24.8482 0 55.5C0 86.1518 24.8482 111 55.5 111C86.1518 111 111 86.1518 111 55.5C111 24.8482 86.1518 0 55.5 0ZM42.1525 8.23998C29.3258 11.8553 18.6289 20.5519 12.3723 32.0192H32.8958C33.993 26.5696 35.4648 21.6002 37.2445 17.2994C38.6593 13.8804 40.2985 10.811 42.1525 8.23998ZM6.40385 55.5C6.40385 49.4949 7.48198 43.7416 9.45524 38.4231H31.812C31.0642 43.8119 30.6633 49.5553 30.6633 55.5011C30.6633 61.4462 31.0641 67.1887 31.8116 72.5769H9.45524C7.48198 67.2584 6.40385 61.5051 6.40385 55.5ZM12.3723 78.9808C18.6285 90.4475 29.3246 99.1437 42.1504 102.759C40.2973 100.189 38.6587 97.1206 37.2445 93.7029C35.4646 89.4015 33.9926 84.4313 32.8954 78.9808H12.3723ZM39.4369 78.9808C40.4245 83.5556 41.6876 87.6917 43.1618 91.2544C45.0244 95.7559 47.1612 99.1886 49.3701 101.447C51.5686 103.694 53.64 104.593 55.5041 104.593C57.3683 104.593 59.4397 103.694 61.6382 101.447C63.8471 99.1886 65.9838 95.7559 67.8465 91.2544C69.3207 87.6917 70.5837 83.5556 71.5714 78.9808H39.4369ZM78.1129 78.9808C77.0157 84.4313 75.5437 89.4015 73.7638 93.7029C72.3501 97.1193 70.7122 100.187 68.86 102.757C81.6811 99.139 92.3731 90.4444 98.6277 78.9808H78.1129ZM101.545 72.5769H79.1966C79.9442 67.1887 80.345 61.4462 80.345 55.5011C80.345 49.5553 79.9441 43.8119 79.1963 38.4231H101.545C103.518 43.7416 104.596 49.4949 104.596 55.5C104.596 61.5051 103.518 67.2584 101.545 72.5769ZM72.7277 72.5769H38.2805C37.4982 67.2663 37.0672 61.5187 37.0672 55.5011C37.0672 49.4828 37.4983 43.7343 38.2809 38.4231H72.7274C73.51 43.7343 73.9411 49.4828 73.9411 55.5011C73.9411 61.5187 73.5101 67.2663 72.7277 72.5769ZM78.1124 32.0192H98.6277C92.3728 20.555 81.68 11.86 68.8579 8.24291C70.711 10.8134 72.3496 13.8817 73.7638 17.2994C75.5434 21.6002 77.0153 26.5696 78.1124 32.0192ZM43.1618 19.7479C41.6878 23.31 40.425 27.4453 39.4374 32.0192H71.5709C70.5833 27.4453 69.3205 23.31 67.8465 19.7479C65.9838 15.2464 63.8471 11.8137 61.6382 9.55579C59.4397 7.30854 57.3683 6.40904 55.5041 6.40904C53.64 6.40904 51.5686 7.30854 49.3701 9.55579C47.1612 11.8137 45.0244 15.2464 43.1618 19.7479Z" fill="#222222"/>
</svg>
